<svg width="69" height="62" viewBox="0 0 69 62" fill="none" xmlns="http://www.w3.org/2000/svg">
<g clip-path="url(#clip0)">
<path d="M40.4169 58.8041V62C36.9578 61.1782 34.0448 59.5346 31.7691 57.1605C29.2203 54.5125 28.0369 51.4993 28.0369 48.1208C28.0369 46.0206 28.6741 44.377 29.9485 43.0987C31.2229 41.8203 32.8615 41.1812 34.8641 41.1812C36.5026 41.1812 37.686 41.2725 38.3232 41.4551V44.9249C37.2309 44.1944 36.0475 43.8292 34.7731 43.8292C33.4987 43.8292 32.5884 44.2857 31.8601 45.1075C31.1319 45.9293 30.8588 47.025 30.8588 48.3034C30.8588 50.1296 31.405 51.9558 32.4973 53.5994C33.4987 55.1517 34.8641 56.43 36.5937 57.4345C38.0501 58.3476 39.3245 58.8041 40.4169 58.8041Z" fill="#B28C53"/>
<path d="M42.7837 41.2725H55.2546C54.8905 41.8203 54.7085 42.6421 54.7085 43.5552V59.4433C54.7085 60.3564 54.8905 61.0869 55.2546 61.7261H51.5225C51.8866 61.1782 52.0686 60.4477 52.0686 59.4433V43.7379H45.9697V59.5346C45.9697 60.4477 46.1517 61.1782 46.4248 61.8174H42.7837C43.1478 61.3608 43.3298 60.539 43.3298 59.5346V43.6465C43.2388 42.6421 43.0567 41.8203 42.7837 41.2725Z" fill="#B28C53"/>
<path d="M60.8074 46.6598V47.8468C64.0844 47.8468 66.1781 48.1208 67.2704 48.6686C67.9076 49.0339 68.3628 49.4904 68.6359 50.1296C68.909 50.7688 69.091 51.5906 69.091 52.595C69.091 54.9691 67.8166 57.0692 65.2678 59.0781C62.901 60.9043 60.4433 61.8174 58.0765 61.8174C58.3496 61.3608 58.5317 60.7217 58.5317 59.8086V46.6598C58.5317 45.7467 58.3496 45.1075 58.0765 44.651H67.9987V46.9337C67.6346 46.7511 67.0884 46.6598 66.5422 46.6598H60.8074ZM66.4512 52.6863C66.4512 51.7732 66.1781 51.134 65.6319 50.6775C65.0857 50.2209 64.4485 49.947 63.5383 49.947H60.8074V58.7128C62.0818 58.3476 63.3562 57.6171 64.5396 56.5214C65.814 55.243 66.4512 53.9647 66.4512 52.6863Z" fill="#B28C53"/>
<path d="M4.46042 61.8174H0C1.00132 60.2651 1.63852 58.8955 2.09367 57.7997C2.27573 57.1605 2.63984 56.2474 3.00396 55.0604C3.4591 53.782 4.09631 51.9558 4.91557 49.4904C4.55145 49.0339 4.09631 48.3947 3.4591 47.4816C3.00396 46.8424 2.36675 45.9293 1.54749 44.5597C1.36544 44.1944 1.27441 43.7379 1.27441 43.2813C1.27441 42.003 2.09367 41.3638 3.73219 41.3638H12.653C12.2889 41.9116 12.1069 42.7334 12.1069 43.8292V59.5346C12.1069 60.6304 12.2889 61.4522 12.653 61.9087H8.82981C9.19393 61.2695 9.28496 60.4477 9.28496 59.5346V55.3343L6.82718 51.9558C6.281 53.4168 5.82586 54.8778 5.27968 56.3388C4.55145 58.4389 4.18733 59.8086 4.18733 60.539C4.18733 61.0869 4.27836 61.5435 4.46042 61.8174ZM9.37599 50.7688V43.7379H6.00792C5.27968 43.7379 5.0066 43.9205 5.0066 44.377C5.0066 44.9249 5.18865 45.4728 5.55277 45.838C5.82586 46.2033 7.10026 47.7555 9.37599 50.7688Z" fill="#B28C53"/>
<path d="M22.3021 41.2725H27.9459C26.9446 42.0029 25.8523 42.8247 24.8509 43.7379L20.4815 47.5729L25.7612 58.6215C26.2164 59.6259 26.9446 60.7216 27.9459 61.8174H23.2124C23.3945 61.5434 23.3945 61.3608 23.3945 61.1782C23.3945 60.1738 23.2124 59.352 22.9393 58.7128L18.752 49.8557V59.352C18.752 60.1738 18.9341 60.9956 19.2071 61.7261H15.566C15.9301 61.0869 16.0211 60.2651 16.0211 59.4433V43.6465C16.0211 42.8247 15.8391 42.0943 15.566 41.3638H19.2071C18.9341 42.1856 18.752 43.0074 18.752 43.7379V46.0206L20.4815 44.4683C20.8457 44.1944 21.2098 43.8292 21.5739 43.5552C22.029 43.19 22.2111 42.7334 22.3021 42.4595C22.3021 42.0943 22.3021 41.8203 22.3021 41.2725Z" fill="#B28C53"/>
<path d="M57.0752 30.9544C53.6161 30.1326 44.8773 29.4934 34.591 29.4021C24.3048 29.5847 15.566 30.2239 12.1069 30.9544C11.5607 31.137 11.4697 31.3196 11.3786 31.5022C11.2876 31.5935 11.4697 31.8675 11.5607 31.8675C11.6517 31.9588 11.5607 32.2327 11.6517 32.324C11.7427 32.4153 11.8338 32.5066 12.0158 32.4153C15.4749 31.5935 24.2137 30.9544 34.5 30.8631C44.7863 31.0457 53.5251 31.6848 56.9842 32.4153C57.1662 32.5066 57.2573 32.5066 57.3483 32.324C57.4393 32.2327 57.3483 31.8675 57.4393 31.8675C57.6214 31.8675 57.7124 31.6848 57.6214 31.5022C57.7124 31.3196 57.5303 31.137 57.0752 30.9544Z" fill="#B28C53"/>
<path d="M13.2902 27.9411C13.2902 28.7629 12.653 29.4934 11.7427 29.676L11.8338 30.0412C11.9248 30.0412 12.0158 29.9499 12.1069 29.9499C15.4749 29.3108 24.1227 28.7629 34.2269 28.5803L30.4947 26.1149L33.9538 24.2887C23.3034 24.4713 14.2916 25.1105 10.6504 25.7496L10.8324 26.2062C11.0145 26.1149 11.2876 26.1149 11.4697 26.1149C12.3799 26.2062 13.2902 27.028 13.2902 27.9411Z" fill="#B28C53"/>
<path d="M38.6873 26.1149L34.9551 28.5803C45.0594 28.7629 53.7071 29.3108 57.0752 29.9499C57.1662 29.9499 57.2573 29.9499 57.3483 30.0412L57.4393 29.676C56.529 29.4934 55.8918 28.7629 55.8918 27.9411C55.8918 26.9367 56.7111 26.1149 57.8034 26.1149C58.0765 26.1149 58.2586 26.2062 58.4406 26.2062L58.6227 25.7496C54.8905 25.1105 45.8786 24.38 35.3193 24.2887L38.6873 26.1149Z" fill="#B28C53"/>
<path d="M59.0779 23.8321C59.0779 23.6495 59.0778 23.1929 59.2599 22.7364L65.6319 11.7791L68.4538 8.67452L68.1807 7.12224L66.7243 7.48748L64.9037 11.2312C63.1742 9.95287 61.6267 10.2268 60.3523 11.8704C59.7151 11.6878 59.0778 11.6878 58.4406 11.5965L60.6253 8.85714L60.1702 7.30486L58.7137 7.76141L57.1662 11.6878C56.9842 11.6878 56.8021 11.6878 56.6201 11.7791L56.2559 13.0574L56.8931 13.4227C53.9802 15.3402 51.9776 18.2621 54.8905 22.1885C52.2507 22.4624 49.5198 20.9102 48.2454 16.8012C49.4288 17.0751 50.157 18.1708 50.4301 20.271C52.9789 18.4448 55.1636 13.3314 55.6187 7.94403C55.5277 7.94403 55.4367 7.94403 55.3457 7.94403C53.5251 7.76141 51.8866 7.39617 50.066 6.93962C50.7032 7.03093 51.2493 6.84831 51.3404 6.48306C51.4314 6.11782 50.7942 5.75258 50.066 5.66127C49.1557 5.47864 48.5185 5.66127 48.5185 6.02651C48.5185 6.30044 48.7005 6.48306 49.0647 6.66568C46.7889 6.57437 44.6042 6.66568 42.4195 6.66568C42.3285 6.66568 42.1464 6.48306 42.1464 6.48306C43.0567 11.4138 43.785 15.8881 41.5092 20.5449C43.967 18.0795 46.2428 16.6186 47.9723 16.7099C45.6966 20.1797 41.3272 21.9146 38.0501 20.5449C40.4169 17.9882 40.599 14.8837 38.5963 11.3225C39.0515 11.3225 39.8707 9.95287 39.5066 9.67894C39.4156 9.58763 39.3245 9.58763 39.2335 9.49632L41.3272 6.20913L40.781 4.74816L39.3245 5.38733L38.2322 9.03976C37.9591 8.94845 37.7771 8.85714 37.504 8.76583C37.595 6.57437 36.6847 5.47864 34.9552 5.38733L35.5924 1.27835L34.5 0L33.4077 1.09573L34.0449 5.20471C32.4063 5.29602 31.5871 6.39175 31.6781 8.58321C31.405 8.67452 31.223 8.76583 30.9499 8.85714L29.8575 5.20471L28.4011 4.56554L27.8549 6.02651L29.9486 9.22239C29.8575 9.3137 29.6755 9.40501 29.5844 9.49632C29.1293 9.77025 29.9486 11.1399 30.4947 11.1399C28.4921 14.701 28.6741 17.8056 31.0409 20.3623C27.7639 21.8233 23.3945 19.9971 21.1187 16.5272C22.7573 16.3446 25.124 17.8056 27.5818 20.3623C25.3061 15.7054 26.1253 11.2312 27.0356 6.30044C26.9446 6.39175 26.7625 6.48306 26.7625 6.48306C24.5778 6.48306 22.3021 6.30044 20.1174 6.48306C20.4815 6.30044 20.7546 6.02651 20.6636 5.84389C20.5726 5.47864 19.9354 5.29602 19.2071 5.47864C18.4789 5.56996 17.9327 6.02651 17.9327 6.30044C18.0238 6.57437 18.4789 6.757 19.2071 6.757C17.3865 7.21355 15.748 7.57879 13.9274 7.76141C13.8364 7.76141 13.6544 7.76141 13.6544 7.76141C14.1095 13.1487 16.2032 18.1708 18.843 20.0884C19.0251 17.9882 19.8443 16.8925 20.9367 16.6186C19.6623 20.6362 16.9314 22.1885 14.3826 21.9146C17.3865 17.9882 15.2929 15.0663 12.471 13.1487L13.1082 12.7835L12.7441 11.5052C12.471 11.5052 12.2889 11.4138 12.0158 11.4138L10.4683 7.57879L8.82982 7.30486L8.4657 8.85714L10.6504 11.6878C10.0132 11.6878 9.37599 11.7791 8.73879 11.9617C7.46439 10.3181 5.91689 10.0442 4.18734 11.3225L2.36676 7.57879L0.910294 7.12224L0.637207 8.67452L3.45911 11.8704L9.83114 22.7364C10.0132 23.2842 10.0132 23.7408 10.0132 23.9234C9.83114 24.0147 9.74011 24.1973 9.64908 24.2887C9.55805 24.38 9.74011 24.5626 9.92217 24.6539C10.1042 24.6539 9.92217 25.0191 10.0132 25.1105C10.1042 25.2018 10.1953 25.2931 10.3773 25.2018C14.1095 24.38 23.4855 23.6495 34.5 23.4669C45.5145 23.6495 54.9815 24.4713 58.6227 25.2018C58.8048 25.2931 58.8958 25.2931 58.9868 25.1105C59.0779 25.0191 58.9868 24.6539 59.0779 24.6539C59.2599 24.6539 59.3509 24.38 59.3509 24.2887C59.442 24.106 59.3509 24.0147 59.0779 23.8321ZM49.9749 6.93962C51.4314 7.48748 52.7968 7.94403 53.7071 8.58321C52.2507 8.94845 50.8852 9.13107 49.5198 9.13107L49.9749 6.93962ZM15.4749 8.58321C16.3852 7.94403 17.7507 7.48748 19.2071 6.93962L19.6623 9.13107C18.2968 9.13107 16.9314 8.94845 15.4749 8.58321ZM59.1689 21.3667C59.3509 21.1841 58.4406 22.6451 57.8945 23.5582C56.9842 23.3755 55.8918 23.2842 54.5264 23.1016C56.0739 23.0103 57.7124 22.4624 59.1689 21.3667ZM43.4209 7.39617C44.7863 7.03093 46.88 6.93962 49.0647 6.66568H49.1557L48.9736 9.13107C46.971 8.94845 45.1504 8.40059 43.4209 7.39617ZM47.9723 18.6274C48.8826 21.0015 50.5211 22.3711 52.3417 22.919C49.2467 22.6451 45.4235 22.3711 41.2362 22.1885C43.3298 22.0972 45.6055 20.9102 47.9723 18.6274ZM20.1174 9.13107L19.8443 6.757H19.9354C22.1201 7.03093 24.1227 7.12224 25.5792 7.48748C23.9406 8.40059 22.1201 8.94845 20.1174 9.13107ZM21.0277 18.6274C23.4855 20.9102 25.7612 22.0972 27.8549 22.1885C23.5765 22.3711 19.7533 22.6451 16.6583 22.919C18.4789 22.3711 20.1174 21.0015 21.0277 18.6274ZM9.83114 21.3667C11.2876 22.4624 12.9261 23.0103 14.5646 23.1016C13.1992 23.2842 12.1069 23.3755 11.1966 23.5582C10.6504 22.7364 9.64908 21.2754 9.83114 21.3667ZM28.9472 22.0972C30.9499 21.8233 32.7705 20.7275 34.5 18.7187C36.2296 20.6362 38.0501 21.8233 40.0528 22.0972C38.3232 22.0059 36.5026 22.0059 34.591 21.9146C32.5884 22.0059 30.7678 22.0972 28.9472 22.0972Z" fill="#B28C53"/>
</g>
<defs>
<clipPath id="clip0">
<rect width="69" height="62" fill="white"/>
</clipPath>
</defs>
</svg>
